<svg xmlns="http://www.w3.org/2000/svg" viewBox="0 0 962 656"><defs><style>.a,.c{fill:#2a94f4}.a{opacity:.09;isolation:isolate}.b{fill:#f2f2f2}.d{fill:#0b4870}.e{opacity:.54}.f{fill:#d3d3d3}.g{fill:#fcd2b1}.h{fill:#ffbe55}.i{fill:#ffe3ca}</style></defs><path d="M231.45 509.28c0-136.78 110.88-247.66 247.66-247.66S726.77 372.5 726.77 509.28" class="a"/><path d="M594 433a41.58 41.58 0 0 0-4.63.26 60.61 60.61 0 0 0-12.31-18.73c.08-1 .13-2.07.13-3.13a42 42 0 1 0-84 0 60.67 60.67 0 0 0-15.9 22.74 41.82 41.82 0 0 0-17.07 8.51l-.46-.65a42 42 0 1 0-74.34-14.19 42 42 0 1 0 17.74 74.42 42 42 0 0 0 49.65-2.88 42 42 0 0 0 55.19 12 60.51 60.51 0 0 0 58.81-4.35A42 42 0 1 0 594 433z" class="b"/><path d="M445.14 107.95h71.71v260.22h-71.71z" class="c"/><path d="M481 38.72C449.44 70.28 445.14 108 445.14 108h71.72s-4.3-37.72-35.86-69.28z" class="d"/><g class="e"><path d="M498.34 163A17.34 17.34 0 1 1 481 145.67 17.34 17.34 0 0 1 498.34 163z" class="f"/></g><g class="e"><circle cx="481" cy="215.06" r="17.34" class="f"/></g><path d="M493.92 215.06A12.92 12.92 0 1 1 481 202.14a12.91 12.91 0 0 1 12.92 12.92zM493.92 163A12.92 12.92 0 1 1 481 150.09 12.92 12.92 0 0 1 493.92 163z" class="f"/><path d="M437.33 368.96h15.62v66.31h-15.62zM473.19 368.96h15.62v66.31h-15.62zM509.05 368.96h15.62v66.31h-15.62z" class="g"/><path d="M493.92 375.83h-25.84a12.92 12.92 0 0 1 25.84 0zM529.78 375.83h-25.84a12.92 12.92 0 1 1 25.84 0zM458.06 375.83h-25.84a12.92 12.92 0 0 1 25.84 0z" class="d"/><path d="M560.93 509.64h-26.11V226h26.11zm-24.33-1.78h22.54V227.79H536.6z" class="c"/><path d="M535.17701073 507.7025718l24.32597682-12.82563262 1.0540338 1.999153-24.3259768 12.82563262zM535.16914987 464.34598652l24.32597682-12.82563261 1.05403381 1.999153-24.32597682 12.82563261zM535.17128902 420.99940124l24.32597681-12.8256326 1.05403381 1.999153-24.32597682 12.8256326zM535.18777828 377.78268144l24.32373795-12.8298781 1.0543827 1.99896901-24.32373794 12.8298781zM535.1878904 334.43847043l24.32373795-12.8298781 1.0543827 1.99896901-24.32373795 12.8298781zM535.17298924 290.96283027l24.32373795-12.8298781 1.05438271 1.99896901-24.32373795 12.8298781zM535.16843595 247.60977426l24.32373795-12.8298781 1.0543827 1.99896901-24.32373794 12.8298781zM421.2 509.64h-26.11V226h26.11zm-24.33-1.78h22.54V227.79h-22.54z" class="c"/><path d="M395.45869301 507.69726737l24.32597682-12.8256326 1.0540338 1.999153-24.32597681 12.8256326zM395.46083215 464.3506821l24.32597682-12.82563261 1.0540338 1.999153-24.32597681 12.8256326zM395.4529713 421.00409682l24.32597681-12.82563261 1.0540338 1.999153-24.32597681 12.82563261zM395.45198908 377.76361341l24.32373795-12.8298781 1.05438271 1.99896902-24.32373795 12.8298781zM395.4656116 334.43358199l24.32373796-12.8298781 1.0543827 1.998969-24.32373795 12.8298781zM395.45955544 290.96327642l24.32373796-12.8298781 1.0543827 1.998969-24.32373795 12.8298781zM395.46500215 247.6202204l24.32373795-12.82987809 1.05438271 1.99896901-24.32373795 12.8298781z" class="c"/><path d="M735.5 564h-529a27.5 27.5 0 0 1-27.5-27.5 27.5 27.5 0 0 1 27.5-27.5h529a27.5 27.5 0 0 1 27.5 27.5 27.5 27.5 0 0 1-27.5 27.5z" class="b"/><path d="M317.61 322.4c.06.03.07.04 0 0z" class="d"/><path d="M268.85 496.32v6.07a13.3 13.3 0 0 1-.5 3.66l-.53 1.87a2.41 2.41 0 0 0 2.32 3.06h13a.6.6 0 0 0 .62-.5c.15-1.77-5-3-8.83-4.45-2.94-1.14-2.78-6.42-2.42-9.51a1.85 1.85 0 0 0-2-2.06 1.86 1.86 0 0 0-1.66 1.86zM240.42 494.62l-2.09 6.95a3 3 0 0 1-.41.86l-1.48 2.2a2.51 2.51 0 0 0 1.35 3.8s3 1.05 6.08 2.07 7.13.17 7.13-.66c0-1.85-1.73-.38-4.62-2.32-1-.65-2-1.33-2.86-2-2.49-1.95-.32-6.9 1.21-9.68a1.7 1.7 0 0 0-1.15-2.48l-.72-.15a2.09 2.09 0 0 0-2.44 1.41z" class="g"/><path d="M261.8 413.33l22.93-1.92s2.31 16.69-3.49 46.9c-2.72 14.17-8.38 41.24-8.38 41.24a6.53 6.53 0 0 1-4.28.41s-.43-11.94-.69-24.8c-.25-12.33-.32-25.51-1.11-29.83-1.61-8.81-4.98-32-4.98-32z" class="d"/><path d="M266.53 413.62c2.37 12.71 7.66 31.71-2.53 49.55s-20.89 36.4-20.89 36.4a5.73 5.73 0 0 1-3.79-1.33s1.79-8.09 4.37-17.54c2.95-10.81 6.7-23.52 5.63-30.15-2-12.42-4.29-29-3.6-37s19.57-6.61 20.81.07zM283.74 368.67l18.07 9.93 18.15-28.56-21.95-7.62-14.27 26.25z" class="d"/><path d="M284.89 367.81l16.9 9.29 16.97-26.71-20.53-7.13-13.34 24.55z" class="f"/><path d="M278.7 362.81s3.15-1.5 4.53-2.29 4.93-1.87 5.22-2.12 10.55-.89 11.15-1.4 1.22 1.26-1.43 1.84-6.35 2-6.55 3 2.73 1.28 3 2.14-.08.66-.5.85-3.48-1.51-4.83-1-3.41-.19-4.44.17l-6.05 2z" class="g"/><path d="M284.38 365l1.62-.6s-2-4.74-2.9-4.63a20.49 20.49 0 0 0-2.28.47z" class="f"/><path d="M284.75 365.85c-.21-.15-3.44-6.36-3.44-6.36l-6.92.94 3.74 7.36zM302.7 375s2.64-2.38 3.92-3.37 3.68-3.92 4-4.09 4.94-9.58 5.68-9.95-.71-1.64-2.29.63-4.36 5.2-5.42 5-.15-3.07-.84-3.68-.66-.18-1 .14.07 3.87-.91 4.95-1.15 3.28-1.89 4.12l-4.28 4.91zM260.57 316.33s7.93-3 11.59 3.08 3.3 18.12-.69 19.6-10 .71-12.05-3.07-3.89-9.24-3.8-12.88 2.86-5.68 4.95-6.73z" class="g"/><path d="M270.6 339.28s-.6 5.72-.09 6.72-9.9 0-9.9 0-.94-8.21-2.61-13 12.6 6.28 12.6 6.28z" class="g"/><path d="M258 333s.38 6.11 3.43 5.63 7.13-9.41 8.4-9.85 1.28-1.19 1.28-1.19l.8 1.16 1.35.09s-1.23-3.63.63-5.11-1.89-11.73-11.7-8.34c0 0-7.51 2.07-7.23 6.34s1.36 9.12 3.04 11.27z" class="d"/><path d="M271.74 347.3s0-2-.95-2.21-10.08-1.07-11.2-.63v2.35s2.16 1.32 12.15.49z" class="f"/><path d="M270.91 326c-.17-.72-2-2.76-2.69-.57s1 5.14 2 4.88 1.13-2.49.69-4.31z" class="g"/><path d="M244.33 422.54a84.28 84.28 0 0 0 13.15 2.35c8.29.91 29-.33 29.14-1.31s-4.46-36.48-4.2-38.31.4-8.34.4-8.34a45.61 45.61 0 0 0 4.12 13.07c.79 1.44 3.45 5.94 4.74 4.91 6.21-4.95 15.82-23.63 16.43-23.79-.51-.22-4.56-2.08-5.12-2.27s-5 4.57-7.69 7.51c-1.21 1.31-2.07 2.26-2.07 2.26-.78-1.76-3.64-12.87-4.52-16.71-2-8.67-1.69-9-1.69-9-6.07-1.84-15.27-5.57-15.27-5.57l-12.15-.49s-11.15 2.45-15.54 4.44c-.42.19-.42 9.95-1.56 12.51l3.64 7.68s2.1 15.22 2.54 22c.19 3.04-4.35 29.06-4.35 29.06z" class="h"/><path d="M242 376.42c.32 1 1.76 1.89 2.69 2.27a3.56 3.56 0 0 0 2 .2l.48-.09 8.33-1.55s1.82-21-11.37-26c-.43.11-5.06 15.75-2.13 25.17z" class="h"/><path d="M258.31 317s-10 1-.18 16.16zM311.61 348.51l1.05-1.82-8.32-2.87-1.05 1.81 8.32 2.88z" class="d"/><path d="M716 477.49s3.55 8.85 4.26 10.31a7.84 7.84 0 0 0 2.84 2.73 5 5 0 0 1 1 1.31 1.45 1.45 0 0 1 .1 1.3c-2.79 7.61-11.31 10.67-11.51 10.1-.36-1 .9-3.1 2.69-4.14a6.1 6.1 0 0 0 2.91-5.11 9.66 9.66 0 0 0-1.06-4.77l-3.47-6.59zM703.78 488.56l-2.13 9.44a12.41 12.41 0 0 0 1.15 8.54 2.71 2.71 0 0 1-1.47 3.83c-5.05 1.8-14.83 5.22-15.27 4.85-2.22-1.88 3.65-5 8-8.26 2.93-2.2 4.05-12.46 4.31-20.34l4.63 1.18a1.12 1.12 0 0 1 .78.76z" class="i"/><path d="M694.84 510.05a34.09 34.09 0 0 1-6.48 1.17 1.33 1.33 0 0 0-.66.27c-2 1.56-3 3.13-1.85 4.13.47.4 12-3.67 16.45-5.28a1.62 1.62 0 0 0 .88-2.3l-.85-1.6a33.59 33.59 0 0 1-7.49 3.61zM699.82 383.37c5.56.76 10.29 7.16 9.31 14.32-.56 4.11-4.39 18.82-8.59 30.45a13.49 13.49 0 0 0 2.07 13.18 11.8 11.8 0 0 1 1.26 1.84c1.75 3.23 8.5 22.31 12.47 35-.32 1.67-1.31 3.78-2.56 4.51-7-10.81-18.31-30.54-20.17-34a58 58 0 0 1-3-6.19c-4.51-6-3.64-39.35-2.73-46 .97-7.07 6.38-13.87 11.94-13.11zM698.3 328.71s-4.81 3-4.23 7.11c0 0-2.57-1.82-3.15-8.09-.4-4.35 7.38.98 7.38.98z" class="d"/><path d="M695.53 353.57a21.45 21.45 0 0 1-2.71 10.31 13.21 13.21 0 0 1-4 4.19 12.88 12.88 0 0 1-5.27 2 20.81 20.81 0 0 1-10-1.24 35.19 35.19 0 0 1-8.41-4.45 1 1 0 0 1 1-1.73 35.86 35.86 0 0 0 8.34 2.73 17.4 17.4 0 0 0 8-.14 7.52 7.52 0 0 0 5-4.28 16.63 16.63 0 0 0 1.07-7.38 3.5 3.5 0 0 1 7-.24.88.88 0 0 1-.02.23z" class="i"/><path d="M692.92 374.72c-1.93-5.8-5.8-18.09-5.47-22.11a5 5 0 0 1 4.94-4.54h16.75a5.12 5.12 0 0 1 5.13 5c.14 4.85-2.09 15.9-3.35 21.68h-18z" class="h"/><path d="M698.48 488.68a.87.87 0 0 1-.4-.77c.35-12.32 1.1-28 1.37-31q0-.51.12-1c-2.64-14.57-3-45.88-3.3-51.36-.34-7.21 4-15.35 9.6-15.61s11.68 5.53 13.48 12.14c1.19 4.36-3.4 27.56-8.38 44.37a25.48 25.48 0 0 0-.68 10.92 32.69 32.69 0 0 1 .29 7.12c-.27 3-3.59 15-6.7 25.35a.85.85 0 0 1-.63.6 6.37 6.37 0 0 1-4.77-.76z" class="d"/><path d="M712.84 382.08a15.8 15.8 0 0 1-.76-7.59c.85-5.94 2.32-17.12 2.19-21.87a4.68 4.68 0 0 0-4.69-4.55h-2.48a6.67 6.67 0 0 1-12.13 0h-2.33c2.54 5.43 1.62 12.59-2.74 16.76.81 2.86 1.49 5.75 2 8.08a15.77 15.77 0 0 1-.86 9.45c-2.14 5.14-3.84 13.38-3.33 16.64 17.62 5 29.81-3.85 29.81-3.85z" class="h"/><path d="M698.3 349.22l7.6-.8-2.4-8.32-4.92.61-.28 8.51z" class="g"/><path fill="#fa968c" d="M698.58 340.71l4.92-.61.75 2.6c-1.1 1.24-2.51 3.92-4.3 3.92a2.82 2.82 0 0 1-1.55-.46z"/><path d="M698.41 344.73c1.67 0 3.47-.84 6-3a7.54 7.54 0 0 0 2.49-4.89v-8.14h-12.55a23.18 23.18 0 0 0 0 8.6c.65 3.22 2.75 7.43 4.06 7.43z" class="g"/><path d="M704.74 335.3c0 1.59.76 2.87 1.7 2.87s2-2.08 2-3.66a1.86 1.86 0 0 0-2-2.08c-.94 0-1.7 1.28-1.7 2.87z" class="g"/><path d="M708.4 329.69a4.59 4.59 0 0 0-4.6-4.59h-4.22a7 7 0 0 1-3.41-.9 3.34 3.34 0 0 0-4.39.82c-1.1 1.49-1.57 3.49 1.21 5.33 1.39.92 3.41-.1 4.76.34h3.96A2.36 2.36 0 0 1 704 333a1.51 1.51 0 0 0 1.52 1.47h.17l.6-1.91 2.08 2.8v-5.69z" class="d"/><path d="M667.22 361.24s2.81 2.86 2.44 4.05-.35 1.08-2.18.73a11.58 11.58 0 0 1-5.1-2.27c-1.19-1.06.73-3.21 1-3.48.94-.89 4.5-1.13 5.49-.14s-3.57 2.94-3.17 2.33 2-1.48 2.25-2.31-.73 1.09-.73 1.09z" class="g"/><path d="M695.28 328.56c.42 1.86-.2 2.87 5.89 5.77s8 1.66 9.91 4.78c0 0-.83-5.17-4.19-6.94s-9.19-2.93-11.06-7a7.83 7.83 0 0 0-.55 3.39z" class="d"/><path d="M628.55 312l-3.71 18.69-3.71 18.69a102 102 0 0 1 45.33-1.86l1.64-8.25 1.64-8.29A102.28 102.28 0 0 1 628.55 312z" class="f"/><path d="M663.1 368l-2.1-1 9.64-20.44 5.4 2.55-8.17 17.33a3.33 3.33 0 0 1-4.77 1.56z" class="d"/><path d="M683.12 350.97L661.87 347l3.46-17.42 21.08 4.8-3.29 16.59z" class="g"/><path d="M696.45 328.91s-.23 6.25-5.7 9.26c0 0 2.41-4.73 2.24-7.82s3.82-3.58 3.46-1.44zM726.3 495.3a1.11 1.11 0 0 0 0-1.45c-.29-.34-1.06-1.29-1.64-2a.53.53 0 0 0-.9.12c-1.94 4.06-5.19 7.23-9.42 7.81-1.37.93-2.25 3-2 3.84.07.19 1.94.22 3.92-.91 8.81-5.01 10.04-7.41 10.04-7.41z" class="d"/><path d="M714.49 350.23v2c0 .62-.07 1.22-.14 1.83a24.81 24.81 0 0 1-.68 3.6 21.19 21.19 0 0 1-3.2 6.74 18.4 18.4 0 0 1-5.64 5 20.69 20.69 0 0 1-6.82 2.43 35.87 35.87 0 0 1-13.43-.49 68.88 68.88 0 0 1-12.31-3.88 1 1 0 0 1-.54-1.31 1 1 0 0 1 1.14-.6 90.09 90.09 0 0 0 12.25 1.87 52.53 52.53 0 0 0 6 .06 26.15 26.15 0 0 0 5.67-1 17.32 17.32 0 0 0 4.84-2.24 12.64 12.64 0 0 0 3.45-3.62 14.57 14.57 0 0 0 1.92-4.72 20.86 20.86 0 0 0 .42-2.61c0-.44.07-.88.07-1.32V350.56a3.49 3.49 0 0 1 7-.39z" class="i"/><path d="M670.08 361.75s-3.83-.93-2.92.9 1.9 1.27 1.9 1.27z" class="g"/><path d="M307.68 242.25h60s5.11-11.63-9.87-13.68 3.4-10.64-12.26-12-3.73 13-19.74 11-25.16 5.11-20.24 5.79-40.2 8.89 2.11 8.89zM392.11 191h60s5.11-11.63-9.87-13.68 3.4-10.64-12.26-12-3.73 13-19.74 11-25.16 5.11-20.24 5.79-40.19 8.89 2.11 8.89zM595.44 291.07h60s5.11-11.63-9.87-13.68 3.4-10.64-12.26-12-3.73 13-19.74 11-25.16 5.11-20.24 5.79-40.19 8.89 2.11 8.89zM516.6 191h60s5.11-11.63-9.87-13.68 3.4-10.64-12.26-12-3.73 13-19.74 11-25.16 5.11-20.24 5.79S474.3 191 516.6 191z" class="a"/><ellipse cx="658.32" cy="591.3" class="f" rx="83.6" ry="2.11"/><ellipse cx="594" cy="617.73" class="f" rx="83.6" ry="2.11"/><ellipse cx="433.91" cy="591.3" class="f" rx="83.6" ry="2.11"/><ellipse cx="253.82" cy="591.3" class="f" rx="83.6" ry="2.11"/><ellipse cx="369.59" cy="617.73" class="f" rx="83.6" ry="2.11"/></svg>